<svg width="65" height="62" xmlns="http://www.w3.org/2000/svg">
 <!-- Created with Method Draw - http://github.com/duopixel/Method-Draw/ -->

 <g>
  <title>background</title>
  <rect fill="none" id="canvas_background" height="64" width="67" y="-1" x="-1"/>
  <g display="none" overflow="visible" y="0" x="0" height="100%" width="100%" id="canvasGrid">
   <rect fill="url(#gridpattern)" stroke-width="0" y="1" x="1" height="480" width="640"/>
  </g>
 </g>
 <g>
  <title>Layer 1</title>
  <g stroke="null" id="svg_7">
   <g stroke="null" transform="matrix(0.2556422599637052,0,0,0.25124173891539797,-14.321739998656,-41.89970540865755) " id="svg_5">
    <path id="svg_6" fill="#f9b627" d="m183.154435,166.770489c-70.68377,0 -128.00106,57.30669 -128.00106,128.00106c0,56.55422 36.6762,104.53448 87.53494,121.45984c6.39708,1.18488 8.74565,-2.77673 8.74565,-6.15757c0,-3.05228 -0.1187,-13.13543 -0.17381,-23.83115c-35.61002,7.74306 -43.12416,-15.10247 -43.12416,-15.10247c-5.82266,-14.79511 -14.21221,-18.72917 -14.21221,-18.72917c-11.61353,-7.94443 0.87541,-7.78121 0.87541,-7.78121c12.85352,0.90296 19.62154,13.19054 19.62154,13.19054c11.41641,19.56855 29.94422,13.91122 37.24851,10.64061c1.14885,-8.27297 4.46609,-13.9197 8.12671,-17.11612c-28.43078,-3.2367 -58.31776,-14.21222 -58.31776,-63.25866c0,-13.97481 5.00024,-25.39333 13.18842,-34.35731c-1.32901,-3.22397 -5.71032,-16.24283 1.24,-33.87403c0,0 10.74871,-3.44018 35.2094,13.1206c10.21033,-2.83608 21.16041,-4.25837 32.03842,-4.30712c10.87801,0.04875 21.83657,1.47104 32.06597,4.30712c24.43102,-16.56078 35.1649,-13.1206 35.1649,-13.1206c6.96727,17.6312 2.58384,30.65006 1.25483,33.87403c8.20726,8.96398 13.17358,20.3825 13.17358,34.35731c0,49.16302 -29.94421,59.98805 -58.44706,63.15691c4.59115,3.97222 8.68206,11.76191 8.68206,23.70398c0,17.12673 -0.14837,30.91077 -0.14837,35.12674c0,3.40627 2.30405,7.39756 8.79228,6.14061c50.83118,-16.94443 87.46075,-64.90774 87.46075,-121.44288c0,-70.69437 -57.30881,-128.00106 -127.99894,-128.00106zm-80.0605,182.34021c-0.28191,0.63589 -1.28239,0.82666 -2.19383,0.39002c-0.92841,-0.41757 -1.44984,-1.28451 -1.14885,-1.92252c0.27555,-0.65497 1.27815,-0.83726 2.20443,-0.39849c0.93052,0.41757 1.46044,1.29298 1.13825,1.93099zm6.29623,5.61804c-0.61046,0.56595 -1.80382,0.30311 -2.61352,-0.59138c-0.83726,-0.89237 -0.99411,-2.08573 -0.37518,-2.66015c0.62954,-0.56595 1.78686,-0.30099 2.62624,0.59138c0.83726,0.90297 1.00047,2.08785 0.36246,2.66015zm4.31945,7.1881c-0.78427,0.54475 -2.06665,0.03391 -2.8594,-1.10434c-0.78427,-1.13825 -0.78427,-2.5033 0.01696,-3.05016c0.79487,-0.54687 2.05817,-0.05512 2.86152,1.07466c0.78215,1.15732 0.78215,2.52237 -0.01908,3.07984zm7.30512,8.32482c-0.7016,0.77368 -2.19595,0.56595 -3.28969,-0.48963c-1.11917,-1.03227 -1.43076,-2.49694 -0.72704,-3.27061c0.71008,-0.77579 2.21291,-0.55747 3.31513,0.48963c1.11069,1.03015 1.44983,2.50542 0.7016,3.27061zm9.44116,2.81037c-0.30947,1.00259 -1.74871,1.45832 -3.19855,1.03227c-1.44771,-0.43877 -2.3952,-1.61305 -2.10268,-2.62624c0.30098,-1.00895 1.74658,-1.48375 3.20702,-1.02803c1.44559,0.43665 2.39519,1.60245 2.09421,2.622zm10.74443,1.19209c0.03603,1.05558 -1.19336,1.93099 -2.71527,1.95007c-1.53038,0.03391 -2.76825,-0.8203 -2.78521,-1.85893c0,-1.06618 1.20184,-1.93311 2.73222,-1.95855c1.52191,-0.02967 2.76826,0.81818 2.76826,1.86741zm10.5552,-0.40461c0.18229,1.03015 -0.87542,2.08785 -2.38672,2.36976c-1.48587,0.27132 -2.86152,-0.36457 -3.05017,-1.38624c-0.18441,-1.05558 0.89237,-2.11329 2.37612,-2.38672c1.51343,-0.26284 2.86788,0.3561 3.06077,1.4032z"/>
   </g>
  </g>
 </g>
</svg>